<?xml version="1.0" encoding="iso-8859-1"?>
<!-- Generator: Adobe Illustrator 15.0.0, SVG Export Plug-In . SVG Version: 6.00 Build 0)  -->
<!DOCTYPE svg PUBLIC "-//W3C//DTD SVG 1.1//EN" "http://www.w3.org/Graphics/SVG/1.1/DTD/svg11.dtd">
<svg version="1.1" id="&#x30EC;&#x30A4;&#x30E4;&#x30FC;_1"
	 xmlns="http://www.w3.org/2000/svg" xmlns:xlink="http://www.w3.org/1999/xlink" x="0px" y="0px" width="141.732px"
	 height="141.732px" viewBox="0 0 141.732 141.732" style="enable-background:new 0 0 141.732 141.732;" xml:space="preserve">
<path style="fill-rule:evenodd;clip-rule:evenodd;fill:#E97163;" d="M19.002,101.246c3.651,5.409,10.355,2.065,10.355,2.065
	S51.892,92.33,52.52,74.458c0.26-1.15,1.359-18.87-26.361-33.536c-3.021-1.69-6.695-2.188-9.648-0.113
	c-3.693,2.594-4.612,7.545-2.357,11.505c0.964,1.695,2.739,2.405,2.739,2.405s27.347,7.348,27.184,18.437
	c0.223,0.231,0.751,6.667-20.675,16.416c-1.018,0.455-1.778,0.761-2.611,1.346C17.389,93.305,16.544,97.844,19.002,101.246z
	 M40.916,18.226c-5.417,3.552-1.944,10.253-1.944,10.253S50.38,51.005,68.449,51.873c1.167,0.274,19.09,1.611,33.531-25.711
	c1.667-2.979,2.12-6.619-0.017-9.577c-2.674-3.705-7.689-4.686-11.66-2.501c-1.702,0.933-2.395,2.685-2.395,2.685
	s-7.051,27.056-18.261,26.737c-0.232,0.221-6.726,0.656-16.875-20.754c-0.472-1.015-0.791-1.771-1.396-2.608
	C48.919,16.733,44.321,15.832,40.916,18.226z M122.709,41.498c-3.659-5.417-10.371-2.069-10.371-2.069S89.769,50.426,89.145,68.326
	c-0.263,1.153-1.359,18.903,26.409,33.598c3.027,1.696,6.706,2.196,9.662,0.119c3.702-2.6,4.621-7.56,2.359-11.527
	c-0.966-1.695-2.74-2.407-2.74-2.407S97.438,80.74,97.603,69.631c-0.223-0.232-0.755-6.678,20.704-16.439
	c1.02-0.455,1.78-0.761,2.614-1.349C124.325,49.453,125.171,44.909,122.709,41.498z M101.009,123.507
	c5.414-3.553,1.943-10.253,1.943-10.253S91.544,90.728,73.474,89.86c-1.166-0.274-19.089-1.611-33.53,25.711
	c-1.667,2.979-2.122,6.618,0.017,9.58c2.673,3.702,7.689,4.683,11.66,2.498c1.698-0.936,2.391-2.685,2.391-2.685
	s7.051-27.057,18.262-26.737c0.231-0.221,6.729-0.655,16.874,20.754c0.475,1.016,0.794,1.772,1.396,2.609
	C93.005,124.999,97.603,125.9,101.009,123.507z"/>
</svg>
