<?xml version="1.0" standalone="no"?>
<!DOCTYPE svg PUBLIC "-//W3C//DTD SVG 20010904//EN"
 "http://www.w3.org/TR/2001/REC-SVG-20010904/DTD/svg10.dtd">
<svg version="1.0" xmlns="http://www.w3.org/2000/svg"
 width="1054.000000pt" height="1280.000000pt" viewBox="0 0 1054.000000 1280.000000"
 preserveAspectRatio="xMidYMid meet">
<metadata>
Created by potrace 1.15, written by Peter Selinger 2001-2017
</metadata>
<g transform="translate(0.000000,1280.000000) scale(0.100000,-0.100000)"
fill="#e91e63" stroke="none">
<path d="M0 12310 l0 -490 25 0 25 0 0 490 0 490 -25 0 -25 0 0 -490z"/>
<path d="M5965 10838 c-8 -28 -115 -508 -129 -587 -49 -259 -66 -610 -47 -931
13 -220 19 -247 152 -745 125 -466 181 -711 218 -950 14 -88 31 -288 25 -294
-4 -5 -109 66 -464 314 -450 315 -610 415 -845 530 -226 110 -362 154 -559
180 -61 8 -112 15 -115 15 -3 0 49 -53 115 -118 348 -343 508 -653 539 -1047
7 -89 -8 -276 -30 -375 -8 -36 -59 -348 -114 -693 -55 -346 -102 -631 -104
-633 -4 -4 -851 692 -1159 952 -48 41 -90 74 -92 74 -3 0 11 -44 31 -97 202
-549 286 -981 286 -1468 -1 -269 -15 -425 -63 -667 -27 -139 -102 -423 -115
-436 -7 -8 -127 74 -355 243 -317 235 -444 315 -600 380 -71 29 -210 65 -251
65 l-26 0 18 -68 c95 -356 191 -702 258 -922 398 -1318 810 -2182 1273 -2665
323 -339 750 -543 1628 -779 449 -121 434 -117 448 -99 6 9 12 20 12 23 0 4
-87 85 -192 181 -106 95 -308 289 -448 429 -582 581 -939 1055 -1151 1523 -49
109 -124 326 -115 334 12 12 153 -20 302 -69 97 -31 215 -81 328 -136 l176
-87 5 40 c11 95 25 342 35 635 15 425 35 664 71 835 12 58 57 203 69 225 11
19 14 12 35 -100 24 -120 89 -372 131 -507 136 -436 325 -792 553 -1043 l50
-55 0 40 c1 42 -19 410 -44 840 -40 690 -43 1031 -10 1246 15 100 52 217 64
202 4 -4 15 -30 23 -58 29 -92 110 -289 163 -395 108 -215 241 -379 382 -471
53 -35 272 -133 280 -125 1 1 9 132 18 291 25 431 14 554 -78 851 -121 390
-165 566 -173 698 l-5 81 26 -30 c14 -16 77 -97 140 -180 289 -382 470 -706
575 -1029 l23 -69 -12 -416 c-21 -791 -24 -951 -17 -951 23 0 147 76 178 108
26 26 104 176 273 522 l236 485 67 61 c43 39 68 57 70 48 2 -8 -15 -107 -37
-221 -84 -436 -102 -576 -102 -800 1 -310 57 -530 199 -776 l45 -79 31 59 c17
32 117 219 221 415 213 401 205 393 186 165 -47 -557 -208 -1101 -502 -1692
-147 -297 -354 -643 -553 -927 -41 -60 -71 -108 -66 -108 5 0 96 29 203 65
567 187 1039 423 1418 707 430 321 732 677 954 1120 202 406 311 810 380 1418
56 491 66 568 85 649 27 113 53 168 103 219 l41 42 -20 21 -21 21 -46 -54
c-26 -29 -133 -154 -238 -278 -199 -234 -383 -428 -456 -481 -24 -16 -43 -29
-43 -27 0 2 13 89 29 194 103 665 103 1152 0 1864 -18 129 -98 582 -103 587
-2 2 -58 -162 -125 -365 -67 -202 -145 -414 -172 -471 -147 -311 -335 -470
-596 -506 l-52 -7 -5 34 c-8 51 -17 534 -26 1377 -8 713 -10 772 -28 851 -11
47 -26 98 -34 115 -13 29 -577 847 -602 873 -10 10 -14 -102 -19 -567 l-6
-579 -52 -144 c-152 -424 -264 -574 -363 -485 l-26 22 -56 630 -56 630 -230
475 c-421 866 -728 1470 -814 1602 -25 36 -66 117 -93 180 -93 217 -135 378
-196 755 -13 83 -34 192 -45 242 -20 84 -24 91 -46 91 -14 0 -26 -6 -29 -12z"/>
</g>
</svg>
