<?xml version="1.0" standalone="no"?>
<!DOCTYPE svg PUBLIC "-//W3C//DTD SVG 20010904//EN"
 "http://www.w3.org/TR/2001/REC-SVG-20010904/DTD/svg10.dtd">
<svg version="1.0" xmlns="http://www.w3.org/2000/svg"
 width="1126.000000pt" height="1280.000000pt" viewBox="0 0 1126.000000 1280.000000"
 preserveAspectRatio="xMidYMid meet">
<metadata>
Created by potrace 1.15, written by Peter Selinger 2001-2017
</metadata>
<g transform="translate(0.000000,1280.000000) scale(0.100000,-0.100000)"
fill="#00bcd4" stroke="none">
<path d="M5559 12782 c-86 -23 -169 -74 -233 -142 -63 -69 -103 -149 -124
-251 -52 -251 104 -505 352 -571 l46 -12 0 -358 c0 -197 -3 -358 -7 -358 -5 0
-165 158 -358 350 l-350 350 -70 -71 -70 -70 428 -422 428 -422 -3 -322 -3
-323 -505 502 c-278 277 -659 656 -847 843 l-343 340 -67 -68 -68 -67 918
-918 917 -917 0 -375 0 -375 -417 415 c-230 228 -498 494 -596 590 l-177 175
-64 -70 -65 -70 660 -660 659 -660 -2 -367 -3 -367 -372 365 -372 365 -71 -67
-71 -68 383 -383 383 -383 -349 -2 -348 -3 -176 -312 c-98 -171 -180 -306
-183 -300 -6 10 -234 851 -272 1002 -5 22 -11 42 -13 44 -8 9 -184 -44 -184
-55 0 -7 56 -223 125 -480 69 -257 123 -469 121 -471 -3 -3 -622 350 -634 361
-4 5 -21 69 -312 1155 -87 326 -161 596 -164 598 -3 3 -46 -5 -96 -17 -90 -22
-91 -23 -85 -49 5 -23 153 -578 349 -1308 35 -128 60 -233 58 -233 -4 0 -619
351 -640 366 -3 2 -58 202 -252 929 -77 286 -200 747 -274 1024 -74 277 -136
505 -138 507 -5 4 -176 -40 -183 -48 -3 -2 31 -139 75 -304 509 -1898 527
-1964 525 -1964 -8 0 -542 314 -551 323 -6 7 -19 41 -28 77 -10 36 -76 283
-147 550 -71 266 -131 486 -133 488 -5 4 -169 -39 -179 -48 -4 -4 47 -210 114
-459 66 -249 119 -455 116 -457 -5 -5 -513 283 -544 308 -9 7 -8 17 3 43 24
58 34 163 23 240 -19 136 -111 280 -228 354 -155 99 -377 99 -532 0 -53 -34
-134 -116 -167 -170 -101 -166 -88 -393 32 -552 82 -110 192 -175 335 -198
117 -20 260 17 357 90 l50 37 287 -165 c158 -91 287 -168 287 -171 0 -3 -100
-32 -223 -64 -412 -110 -690 -185 -695 -190 -5 -6 37 -168 47 -178 3 -4 83 13
176 38 94 25 345 92 558 150 l388 104 272 -157 c150 -86 274 -158 276 -160 11
-8 52 3 -1204 -333 -909 -243 -1050 -282 -1054 -285 -6 -7 43 -185 51 -185 4
0 225 58 490 129 1460 391 1763 472 1861 499 l109 30 316 -183 c175 -101 316
-187 315 -191 -2 -8 -253 -76 -1150 -316 -210 -56 -387 -105 -394 -108 -7 -5
-4 -32 11 -91 13 -46 25 -87 29 -91 3 -4 56 6 116 23 246 66 1467 393 1555
416 l95 25 317 -183 c174 -101 315 -186 312 -188 -6 -6 -58 -21 -574 -157
-201 -54 -369 -101 -374 -105 -7 -6 28 -170 39 -187 1 -1 168 42 371 97 625
168 685 184 690 178 3 -3 -73 -143 -170 -311 l-174 -306 168 -297 c93 -164
168 -299 166 -300 -2 -2 -121 28 -265 67 -143 38 -379 102 -522 140 -144 39
-263 69 -264 68 -11 -14 -46 -181 -39 -187 5 -4 219 -63 477 -132 257 -68 467
-127 467 -130 0 -4 -142 -88 -315 -188 l-315 -182 -548 147 c-301 80 -695 186
-877 234 -181 49 -333 86 -336 82 -11 -12 -51 -173 -45 -180 5 -4 658 -181
1346 -363 107 -29 198 -55 202 -58 4 -4 -137 -90 -313 -192 l-322 -185 -86 23
c-103 28 -873 235 -1646 442 -308 82 -594 159 -635 170 -41 12 -79 21 -85 21
-10 0 -62 -177 -54 -185 2 -2 200 -56 439 -120 239 -64 617 -165 840 -225 851
-228 975 -262 978 -265 4 -4 -11 -13 -303 -181 -131 -76 -246 -137 -255 -137
-8 1 -253 65 -545 144 -291 78 -539 142 -550 143 -16 1 -23 -13 -43 -87 -14
-48 -22 -90 -20 -93 4 -4 259 -73 803 -218 85 -23 115 -35 105 -42 -8 -5 -141
-82 -294 -170 l-279 -162 -76 78 c-55 56 -94 86 -141 108 -202 94 -414 58
-570 -98 -201 -201 -199 -513 4 -708 103 -99 209 -142 352 -142 170 0 318 78
410 217 56 85 76 145 83 258 l6 99 305 178 c168 97 308 177 311 177 4 1 1 -20
-7 -46 -87 -309 -233 -877 -227 -883 10 -9 174 -52 179 -48 2 2 70 255 152
561 82 307 151 559 153 561 14 12 551 318 553 315 1 -2 -59 -233 -135 -514
-352 -1308 -468 -1749 -464 -1753 7 -8 178 -52 183 -48 2 2 57 204 122 448
137 513 440 1644 499 1862 22 81 42 150 44 152 7 7 642 372 644 370 1 -1 -9
-40 -22 -86 -28 -102 -381 -1424 -390 -1461 -6 -26 -5 -27 85 -49 50 -12 93
-20 96 -17 3 3 68 238 144 524 76 285 179 671 229 858 50 187 95 349 99 359 7
17 632 388 640 380 2 -1 -53 -214 -122 -472 -69 -259 -126 -476 -126 -484 0
-8 32 -21 91 -37 50 -12 92 -21 93 -19 2 1 65 238 141 526 76 287 141 522 144
522 3 0 85 -139 182 -308 l177 -307 336 -5 336 -5 -370 -370 c-203 -203 -370
-373 -370 -378 0 -8 127 -130 141 -135 5 -2 174 159 377 358 l367 361 3 -368
3 -368 -661 -658 c-363 -362 -660 -661 -660 -665 0 -4 32 -37 71 -71 l71 -64
589 589 589 589 0 -377 0 -376 -920 -914 -919 -914 67 -67 c37 -37 72 -67 77
-67 6 0 389 379 852 842 l843 843 0 -324 0 -324 -427 -422 -428 -423 70 -71
70 -71 350 350 c193 192 353 350 358 350 4 0 7 -161 7 -358 l0 -358 -46 -12
c-177 -47 -316 -193 -353 -370 -34 -165 13 -331 129 -456 264 -282 748 -155
850 224 19 71 14 198 -10 270 -51 151 -170 271 -332 334 l-38 15 0 325 c0 188
4 326 9 326 5 0 150 -144 322 -320 l313 -321 70 70 70 70 -232 238 c-127 131
-303 310 -391 398 l-161 160 0 317 c0 175 1 318 3 318 2 0 369 -366 815 -812
l811 -813 71 70 70 70 -885 885 -885 885 0 375 0 375 556 -558 556 -557 69 61
c38 34 69 66 69 72 0 7 -281 293 -625 637 l-625 625 0 368 c0 202 2 367 5 367
3 0 155 -151 337 -336 l332 -335 62 68 c35 37 63 72 64 78 0 5 -168 178 -372
382 l-373 373 337 0 337 0 19 28 c10 15 90 152 178 305 87 152 161 277 164
277 3 0 67 -233 143 -517 75 -284 139 -518 140 -520 4 -3 177 44 183 50 2 2
-54 219 -125 483 -70 263 -127 480 -126 482 1 1 146 -81 322 -183 l320 -185
107 -403 c276 -1035 359 -1343 367 -1351 5 -5 36 -2 76 9 125 33 117 7 63 212
-26 98 -121 450 -210 782 -89 331 -160 604 -158 605 2 2 148 -81 325 -183
l321 -186 37 -140 c20 -77 117 -441 216 -810 99 -368 230 -857 291 -1085 61
-228 114 -418 117 -422 5 -6 179 35 186 44 1 2 -29 116 -66 253 -37 138 -131
489 -209 780 -78 292 -184 687 -236 879 -51 192 -92 351 -90 353 4 4 525 -294
544 -311 10 -10 88 -291 259 -936 26 -96 49 -178 52 -182 6 -7 155 27 177 40
8 5 -27 151 -112 467 -68 252 -122 461 -120 462 1 1 131 -72 289 -163 l287
-166 0 -87 c0 -102 19 -185 60 -255 93 -164 250 -256 434 -256 143 0 249 43
352 142 203 195 205 507 4 708 -201 201 -514 199 -710 -6 l-62 -64 -274 157
c-150 87 -274 161 -274 164 0 4 21 12 48 18 80 20 867 233 869 235 3 3 -44
177 -50 182 -3 4 -744 -191 -1045 -275 l-72 -20 -253 146 c-291 167 -300 173
-294 179 2 3 146 42 318 89 173 46 568 152 879 235 311 83 675 181 810 217
135 36 246 66 247 67 3 2 -8 44 -33 135 -13 46 -18 53 -37 48 -12 -2 -193 -50
-402 -106 -892 -240 -1213 -326 -1602 -430 -226 -61 -419 -111 -429 -111 -25
0 -647 361 -637 370 4 5 127 40 273 79 756 201 1272 340 1275 343 2 2 -8 45
-22 96 -21 74 -29 92 -42 88 -9 -3 -245 -66 -526 -141 -280 -75 -669 -179
-864 -231 l-353 -95 -222 127 c-121 70 -265 153 -318 183 -54 31 -98 59 -98
62 0 4 15 9 33 12 45 9 917 244 923 250 2 2 -6 44 -20 93 -20 76 -26 89 -43
87 -11 -1 -179 -45 -374 -97 -195 -53 -419 -113 -499 -134 -80 -22 -147 -38
-149 -36 -2 2 66 126 151 276 85 150 161 284 167 296 12 22 -1 48 -145 300
-87 153 -167 292 -178 311 l-20 34 25 -5 c13 -3 245 -65 514 -137 270 -72 498
-133 509 -134 15 -2 23 13 42 87 14 49 22 91 20 93 -2 3 -215 61 -473 130
-257 69 -472 129 -476 133 -4 4 135 89 309 190 l316 183 327 -88 c859 -230
1254 -336 1340 -359 52 -14 96 -25 97 -23 5 5 53 182 50 185 -4 3 -361 100
-1126 304 -228 60 -421 113 -428 117 -16 9 623 377 646 373 9 -2 233 -61 497
-132 1766 -474 1947 -521 1952 -517 5 6 54 180 50 183 -1 1 -180 49 -397 108
-217 58 -521 139 -675 181 -154 41 -486 130 -738 197 -251 67 -454 125 -450
129 7 7 477 280 529 307 17 9 62 0 240 -48 120 -32 372 -99 558 -149 186 -51
341 -90 343 -87 7 6 53 179 49 183 -1 2 -208 58 -460 125 -251 67 -455 126
-454 130 2 5 131 82 288 172 l284 164 30 -25 c50 -42 162 -90 237 -103 327
-55 624 243 570 571 -56 339 -409 520 -717 369 -125 -61 -206 -156 -255 -299
-26 -74 -26 -208 0 -290 l19 -61 -91 -54 c-181 -105 -477 -275 -477 -273 0 1
56 209 124 462 84 313 120 462 112 466 -26 15 -170 49 -176 42 -4 -4 -17 -46
-29 -93 -97 -369 -272 -1014 -276 -1019 -10 -9 -550 -320 -552 -317 -2 1 30
126 71 277 41 151 165 614 276 1029 111 415 214 801 230 857 l27 103 -41 11
c-23 6 -63 17 -90 25 -28 8 -53 11 -57 7 -3 -5 -21 -62 -38 -128 -18 -66 -109
-406 -202 -755 -94 -349 -226 -844 -295 -1100 -68 -255 -127 -467 -132 -471
-14 -14 -634 -370 -638 -367 -2 2 24 105 57 228 223 830 348 1302 351 1317 2
14 -14 22 -85 42 -53 15 -91 21 -96 15 -5 -5 -75 -256 -155 -559 -81 -302
-186 -694 -233 -870 l-86 -321 -316 -182 c-174 -100 -317 -178 -319 -173 -2 5
53 220 122 477 70 257 123 471 119 475 -11 9 -174 51 -179 46 -5 -5 -11 -24
-164 -597 -61 -228 -114 -423 -118 -433 -5 -14 -45 49 -161 255 -85 150 -165
290 -178 311 l-23 37 -348 0 -347 0 384 384 383 383 -62 67 c-35 37 -66 65
-69 64 -3 -2 -152 -151 -331 -333 -179 -181 -328 -331 -332 -333 -5 -2 -8 162
-8 365 l0 368 216 215 c118 118 399 402 624 631 l409 415 -64 70 -64 69 -560
-560 -561 -560 0 375 0 375 683 685 c375 377 772 776 882 888 l200 202 -68 67
-67 68 -812 -813 c-447 -446 -814 -812 -815 -812 -2 0 -3 143 -3 318 l0 317
392 398 391 399 -66 66 -67 67 -318 -318 c-174 -174 -320 -317 -325 -317 -4 0
-7 146 -7 325 l0 325 28 12 c93 38 142 68 202 124 242 229 205 610 -77 787
-109 69 -270 93 -394 59z m41 -5407 l0 -355 100 0 100 0 2 353 3 352 306 3
306 2 161 -285 c89 -157 162 -289 162 -293 0 -4 -133 -83 -295 -177 l-294
-170 32 -55 c17 -30 38 -67 47 -82 8 -16 18 -28 23 -28 4 0 136 74 293 165
158 91 289 165 293 165 9 0 331 -565 331 -581 0 -18 -311 -559 -322 -559 -7 0
-442 247 -565 322 l-32 19 -45 -78 c-25 -43 -46 -82 -46 -88 0 -5 131 -84 290
-174 160 -90 293 -167 296 -172 3 -5 -70 -139 -162 -299 l-167 -290 -306 2
-306 3 -3 353 -2 352 -100 0 -100 0 0 -355 0 -355 -352 0 -353 1 -162 283
c-90 156 -165 290 -168 297 -3 10 82 64 276 174 154 88 286 163 291 167 17 10
-81 171 -100 163 -8 -3 -141 -78 -294 -167 -153 -88 -280 -159 -282 -157 -1 2
-74 129 -161 281 l-157 277 162 286 c89 157 165 287 169 289 4 3 108 -54 231
-125 124 -72 252 -146 286 -165 l61 -34 47 80 c26 45 44 85 41 89 -2 5 -125
79 -272 165 -148 86 -274 160 -282 165 -10 7 21 70 144 287 87 154 162 285
168 292 7 9 91 12 358 12 l349 0 0 -355z"/>
</g>
</svg>
