<!--?xml version="1.0" encoding="utf-8"?-->
<!-- Generator: Adobe Illustrator 15.1.0, SVG Export Plug-In . SVG Version: 6.00 Build 0)  -->

<svg version="1.1" id="_x32_" xmlns="http://www.w3.org/2000/svg" xmlns:xlink="http://www.w3.org/1999/xlink" x="0px" y="0px" width="512px" height="512px" viewBox="0 0 512 512" style="width: 128px; height: 128px; opacity: 1;" xml:space="preserve">
<style type="text/css">

	.st0{fill:#4B4B4B;}

</style>
<g>
	<path class="st0" d="M144.953,264.812c19.391,51.453,59.406,91.109,111.047,102.141c51.641-11.031,91.641-50.688,111.031-102.141
		c35.547-25.406,68.438-81.125,64.188-83.984c-3.625-2.453-33.359,9.047-51.391,16.391c0.031-1.297,0.047-2.594,0.047-3.891
		c0-8.297-0.344-15.906-0.969-22.891c17.797-10.359,35.234-26.938,42.375-53.234C439.688,49.468,388.672,9.343,375.297,2.64
		c-12.719-6.359-14.438,0.156-10.047,5.016c33.094,43.672,21.125,85.547-11.438,97.172C344.922,96.265,335.578,92.75,329,90.437
		c-24.328-8.578-73-8.578-73-8.578s-48.672,0-73.016,8.578c-6.578,2.313-15.922,5.828-24.813,14.391
		c-32.563-11.625-44.547-53.5-11.438-97.172c4.391-4.859,2.672-11.375-10.047-5.016c-13.375,6.703-64.375,46.828-45.984,114.563
		c7.141,26.297,24.578,42.875,42.359,53.234c-0.625,6.984-0.953,14.594-0.953,22.891c0,1.297,0.016,2.594,0.031,3.891
		c-18.016-7.344-47.734-18.844-51.375-16.391C76.516,183.687,109.422,239.406,144.953,264.812z M334.172,208.14
		c0,0,1.375,36.5-28.938,41.328c-17.734,2.813-31.688-13.781-31.688-28.938C277.688,219.843,334.172,208.14,334.172,208.14z
		 M177.828,208.14c0,0,56.469,11.703,60.609,12.391c0,15.156-13.938,31.75-31.688,28.938
		C176.438,244.64,177.828,208.14,177.828,208.14z"></path>
	<path class="st0" d="M493.094,472.249c0,0-16.609-56.047-106.859-94.781c16.594-11.203,44.25-48.906,44.25-48.906
		s-14.375-25.484-46.469-36.703c0,0-40.609,87.656-128.016,98.859c-87.406-11.203-128.031-98.859-128.031-98.859
		C95.891,303.078,81.5,328.562,81.5,328.562s27.656,37.703,44.25,48.906C35.5,416.202,18.906,472.249,18.906,472.249
		c-4.422,13.25,89.938,39.75,237.094,39.75C403.141,511.999,497.516,485.499,493.094,472.249z"></path>
</g>
</svg>
