<!--?xml version="1.0" encoding="utf-8"?-->
<!-- Generator: Adobe Illustrator 18.1.1, SVG Export Plug-In . SVG Version: 6.00 Build 0)  -->

<svg version="1.1" id="_x32_" xmlns="http://www.w3.org/2000/svg" xmlns:xlink="http://www.w3.org/1999/xlink" x="0px" y="0px" viewBox="0 0 512 512" style="width: 128px; height: 128px; opacity: 1;" xml:space="preserve">
<style type="text/css">
	.st0{fill:#4B4B4B;}
</style>
<g>
	<path class="st0" d="M506.292,228.46c-0.838-2.458-3.192-4.077-5.784-3.983l-31.788,1.201l-0.751-18.995
		c-0.103-2.52-1.794-4.694-4.212-5.405c-2.418-0.711-5.01,0.189-6.471,2.244l-17.542,24.826l-19.5,1.494l-41.152-32.484
		c5.95-26.051,9.53-42.044,9.53-42.044l38.038,8.518c6.598,1.77,13.441-1.873,15.653-8.336l4.78-13.938l-71.841-48.911
		l99.354,17.574l4.686-13.986c2.505-7.491,0.245-15.756-5.72-20.924l-52.767-45.726c-45.995-34.024-80.106-41.65-105.328-7.254
		c0,0-0.68,1.138-1.935,3.232l-6.741-3.666c-2.829-1.549-6.092-2.079-9.26-1.525l-20.346,3.548c-2.576,0.45-4.797,2.046-6.045,4.338
		c-1.248,2.291-1.383,5.025-0.363,7.436l8.067,19.011c1.257,2.963,3.477,5.412,6.306,6.953l5.216,2.837
		c-6.045,10.193-12.872,21.73-20.118,34.024l-11.275-6.14c-3.122-1.698-6.724-2.292-10.225-1.675l-22.464,3.911
		c-2.837,0.498-5.294,2.26-6.669,4.796c-1.383,2.528-1.525,5.546-0.403,8.201l8.905,20.987c1.391,3.272,3.84,5.974,6.969,7.68
		l9.846,5.357c-6.803,11.647-13.622,23.373-20.212,34.79l-8.874-5.365c-3.05-1.849-6.621-2.6-10.146-2.149l-22.614,2.892
		c-2.86,0.372-5.397,2.023-6.882,4.488c-1.494,2.465-1.778,5.468-0.774,8.178l7.941,21.374c1.241,3.326,3.572,6.139,6.614,7.98
		l9.94,6.014c-7.206,12.816-13.472,24.186-18.268,33.265l-1.486-1.264c-2.718-2.299-6.132-3.611-9.68-3.721l-22.788-0.711
		c-2.876-0.088-5.641,1.138-7.506,3.35c-1.857,2.197-2.615,5.121-2.054,7.95l4.472,22.354c0.703,3.484,2.553,6.629,5.271,8.929
		l8.186,6.929c-18.174,23.634-38.259,35.265-56.322,36.648l2.694-7.412c0.948-2.608,0.98-5.452,0.103-8.075l-5.634-16.83
		c-0.712-2.134-2.355-3.817-4.472-4.583c-2.102-0.767-4.448-0.522-6.361,0.647l-15.115,9.301c-2.355,1.453-4.156,3.658-5.096,6.258
		l-2.371,6.535c-10.834-11.441-17.937-29.434-18.806-52.885c-0.554-14.839,6.123-46.524,12.248-55.153
		c7.238-10.193-3.588-12.168-13.188-3.374c-41.27,37.833-54.197,108.094-13.97,169.725c23.357,35.778,79.174,61.483,138.119,65.671
		l-9,30.484c-2.023,6.851-0.142,14.262,4.908,19.312l13.1,13.1c3.659,3.658,8.613,5.713,13.788,5.713h63.3v-19.738
		c0-7.902-4.765-15.021-12.074-18.031l-20.718-8.534l18.537-28.73c21.896-5.926,42.464-15.787,60.021-30.231l18.758,10.738
		l14.326,74.836c1.762,9.189,9.798,15.834,19.154,15.834h102.618v-25.98c0-7.665-4.496-14.626-11.497-17.779L416.04,452.2
		l-10.051-60.218c-2.26-13.543-8.052-26.249-16.798-36.829l-36.498-44.186c4.631-19.595,9.016-38.338,13.038-55.611l34.08,17.012
		c7.04,3.516,15.115,4.354,22.725,2.363l31.812-7.901l32.041,5.349c2.386,0.395,4.764-0.703,6.004-2.774
		c1.248-2.07,1.099-4.686-0.371-6.606l-9.418-12.279l21.547-15.376C506.26,233.635,507.129,230.917,506.292,228.46z"></path>
</g>
</svg>
