<!--?xml version="1.0" encoding="utf-8"?-->
<!-- Generator: Adobe Illustrator 18.1.1, SVG Export Plug-In . SVG Version: 6.00 Build 0)  -->

<svg version="1.1" id="_x32_" xmlns="http://www.w3.org/2000/svg" xmlns:xlink="http://www.w3.org/1999/xlink" x="0px" y="0px" viewBox="0 0 512 512" style="width: 128px; height: 128px; opacity: 1;" xml:space="preserve">
<style type="text/css">
	.st0{fill:#4B4B4B;}
</style>
<g>
	<path class="st0" d="M485.421,403.53c-12.413-18.589-31.261-28.868-48.981-35.543c-8.874-3.344-17.57-5.812-25.226-7.901
		c-2.051-0.557-4.013-1.092-5.902-1.613c-19.161-11.379-22.64-21.212-19.027-33.833l44.045-56.814
		c22.343-24.988,59.133-128.115-53.321-217.388l-29.107-22.833c-27.144-21.309-65.347-21.309-92.506,0l-29.09,22.833
		c-112.477,89.273-75.679,192.4-53.344,217.388l44.06,56.814c3.434,12.034,0.305,21.54-16.559,32.243L26.816,209.108L13.29,225.006
		l163.628,139.249c-14.821,4.697-31.164,11.416-44.825,23.13c-7.931,6.816-14.902,15.378-19.801,26.013
		c-4.905,10.629-7.715,23.264-7.708,38.048c0,3.433,0.148,6.978,0.461,10.651c0.223,2.564,1.196,4.66,2.348,6.384
		c2.186,3.211,5.092,5.597,8.726,8.05c6.363,4.206,15.178,8.324,26.468,12.368c33.796,12.055,89.74,23.086,159.056,23.1
		c56.324,0,103.878-7.313,137.8-16.493c16.976-4.608,30.533-9.64,40.329-14.679c4.905-2.527,8.874-5.039,12.026-7.782
		c1.576-1.39,2.943-2.839,4.118-4.564c1.129-1.724,2.126-3.82,2.348-6.384c0.298-3.672,0.446-7.202,0.446-10.629
		C498.74,431.765,493.686,415.882,485.421,403.53z M350.074,305.278c0,1.092-0.847,1.97-1.903,1.97h-21.138
		c-1.04,0-1.903-0.878-1.903-1.97v-23.539h-7.864v23.539c0,1.092-0.862,1.97-1.917,1.97h-21.242c-1.07,0-1.918-0.878-1.918-1.97
		v-23.539h-7.856v23.539c0,1.092-0.854,1.97-1.91,1.97h-21.13c-1.063,0-1.918-0.878-1.918-1.97c0,0,0-9.626,0-23.539
		s-33.722-40.575-39.356-52.169c-24.23-49.85-3.902-71.308,84.702-71.308c90.93,0,108.961,21.458,84.717,71.308
		c-5.634,11.594-39.363,38.256-39.363,52.169S350.074,305.278,350.074,305.278z"></path>
	<path class="st0" d="M261.656,184.35c-15.37,0-27.827,12.457-27.827,27.828c0,15.363,12.457,27.827,27.827,27.827
		c15.364,0,27.82-12.464,27.82-27.827C289.476,196.807,277.02,184.35,261.656,184.35z M261.656,220.874
		c-4.808,0-8.696-3.894-8.696-8.696c0-4.802,3.888-8.696,8.696-8.696c4.802,0,8.689,3.895,8.689,8.696
		C270.345,216.979,266.458,220.874,261.656,220.874z"></path>
	<path class="st0" d="M341.646,184.35c-15.371,0-27.828,12.457-27.828,27.828c0,15.363,12.457,27.827,27.828,27.827
		c15.37,0,27.827-12.464,27.827-27.827C369.473,196.807,357.016,184.35,341.646,184.35z"></path>
	<polygon class="st0" points="285.998,264.346 301.643,261.218 317.297,264.346 301.643,238.266 	"></polygon>
	<path class="st0" d="M122.667,280C82.665,92.179,200.924,24.349,237.448,0C23.532,24.349,35.706,206.96,35.706,206.96L122.667,280z
		"></path>
</g>
</svg>
